<svg width="24" height="24" viewBox="0 0 24 24" fill="none" xmlns="http://www.w3.org/2000/svg"><path d="M9.96 3.287c.68-.618 1.02-.927 1.401-1.058a1.959 1.959 0 0 1 1.276 0c.38.131.72.44 1.402 1.058.32.29.48.436.662.541.198.114.414.193.64.233.206.036.422.028.855.011.918-.035 1.378-.053 1.753.09.409.158.752.446.978.821.207.345.269.8.393 1.711.06.43.088.644.16.84.078.215.193.415.34.59.135.16.306.293.648.558.727.563 1.09.845 1.285 1.197.212.382.29.825.222 1.256-.063.398-.308.787-.798 1.564-.231.367-.347.55-.418.747a1.959 1.959 0 0 0-.118.67c0 .21.045.42.137.844.195.899.292 1.348.215 1.743-.083.429-.308.818-.638 1.105-.303.264-.741.404-1.617.685-.412.132-.618.198-.8.303a1.96 1.96 0 0 0-.52.437c-.135.16-.236.352-.438.735-.429.814-.643 1.22-.955 1.474-.34.275-.762.428-1.2.436-.401.007-.827-.167-1.678-.515-.401-.163-.601-.245-.808-.282a1.958 1.958 0 0 0-.68 0c-.207.037-.407.119-.808.282-.85.348-1.276.522-1.679.515a1.959 1.959 0 0 1-1.199-.436c-.312-.254-.526-.66-.955-1.474-.202-.383-.303-.574-.437-.735a1.96 1.96 0 0 0-.522-.437c-.181-.105-.387-.171-.8-.303-.875-.281-1.313-.421-1.616-.685a1.959 1.959 0 0 1-.638-1.105c-.077-.395.02-.844.215-1.743.092-.423.137-.635.137-.844 0-.229-.04-.455-.118-.67-.071-.197-.187-.38-.418-.747-.49-.777-.735-1.166-.798-1.564-.068-.431.01-.874.222-1.256.195-.352.558-.634 1.285-1.197.342-.265.513-.398.648-.558.147-.175.262-.375.34-.59.072-.196.1-.41.16-.84.124-.91.186-1.366.393-1.711.226-.375.57-.663.978-.82.375-.144.835-.126 1.753-.09.433.016.65.024.856-.012.225-.04.441-.119.639-.233.181-.105.342-.25.662-.54z" fill="#0593FF"></path><path fill-rule="evenodd" clip-rule="evenodd" d="M16.013 9.583a.9.9 0 0 1 0 1.273l-4.73 4.73a.9.9 0 0 1-1.272 0L7.646 13.22a.9.9 0 0 1 1.273-1.272l1.728 1.728 4.093-4.093a.9.9 0 0 1 1.273 0z" fill="#fff"></path></svg>